<?xml version="1.0" encoding="UTF-8"?>
<svg id="Calque_1" data-name="Calque 1" xmlns="http://www.w3.org/2000/svg" viewBox="0 0 1490.38 1308.25">
  <defs>
    <style>
      .cls-1 {
        fill: #1d1d1b;
      }
    </style>
  </defs>
  <path class="cls-1" d="m939.23,776.12c19.07,5.3,36.59,13.94,51.19,27.92,42.47,40.68,40.61,107.89,35.71,166.49,81.96-28.59,148.44-89.25,225.76-128.69,44.86-22.88,97.24-38.63,145.34-23.74,67.5,20.89,105.35,107.5,74.83,171.22-14.5,30.27-40.52,53.21-66.3,74.7-94.2,78.51-196.15,150.48-311.42,192.32-189.15,68.65-396.81,51.02-597.99,46.65-143.6-3.12-287.36.99-430.85-5.6-15.06-.69-30.67-1.65-43.96-8.76s-23.56-22.2-20.2-36.89c5.09-22.23,33.82-27.58,56.61-28.35,174.41-5.88,349-11.75,523.39-5.37,178.16,6.52,365.87,24.03,526.14-54.06,90.76-44.23,165.13-116.03,252.2-167.14,25.05-14.7,55.13-34.87,51.53-63.69-2.22-17.78-18.16-31.6-35.53-36.01-17.37-4.41-35.78-1.04-52.89,4.28-78.28,24.32-138.73,86.87-213.32,120.87-89.84,40.95-192.74,37.62-291.39,33.5-42.11-1.76-84.21-3.51-126.32-5.27-18.25-.76-37.5-1.83-52.77-11.85-15.27-10.02-24.06-32.32-13.36-47.13,8.58-11.87,25.07-14.07,39.67-15.17,66.54-5,133.22-8.14,199.94-9.43,33.32-.64,74.19-5.67,86.59-36.6,10.15-25.31-7.15-54.92-31.1-67.97-23.95-13.04-52.44-13.74-79.71-14.13-67.5-.97-135.01-1.93-202.51-2.9-71.78-1.03-146.33-1.5-211.55,28.51-54.47,25.06-97.71,69.37-149.7,99.22-73.23,42.04-163.52,53.26-244.81,30.43-16.87-4.74-39.21-18.2-30.51-37.47,9.21-20.4,37.44-30.5,57.74-32.92,23.41-2.8,47.12.73,70.67-.5,98.65-5.19,172.51-89.42,261.58-132.16,132.87-63.75,288.96-31.39,436.33-32.34,36.68-.24,76.39-1.58,110.98,8.04Z"/>
  <path class="cls-1" d="m842.41,95.33c5.44,1.23,10.67,2.89,15.39,5.52,11.77,6.55,19.66,19.56,20.04,33.03.38,13.47-6.77,26.9-18.15,34.11-18.56,11.76-42.61,6.1-64.12,1.63-33.21-6.9-68.73-9.8-100.25,2.74-17.09,6.79-34.18,21.83-31.8,40.06,2.3,17.64,21.04,27.66,37.77,33.73,38.65,14.03,79.27,22.78,116.59,40.05,37.32,17.27,72.31,45.11,85.75,83.97,10.12,29.26,6.68,62.62-7.85,89.96-14.54,27.34-39.69,48.55-68.55,59.76-13.44,5.22-28.9,9.28-36.59,21.48-8.72,13.82-3.67,32.23-8.62,47.81-4.83,15.2-20.03,26.47-35.97,26.66-15.94.2-31.42-10.69-36.62-25.76-6.52-18.88,1.44-42.88-12.03-57.63-6.05-6.63-15.1-9.52-23.82-11.64-22.32-5.44-46.16-7.92-65.36-20.54-19.2-12.62-31.29-40.29-17.95-59,7.94-11.14,22.61-15.79,36.28-15.3s26.75,5.31,39.7,9.73c36.97,12.62,76.65,22.46,114.83,14.22,13.79-2.97,27.5-8.57,37.14-18.86,9.64-10.29,14.36-25.98,8.96-39.01-5.7-13.73-20.42-21.13-34.26-26.56-33.12-13-67.9-21.43-100.94-34.64-33.04-13.2-65.12-31.99-85.96-60.83-45.42-62.86-6.91-150.64,63.29-174.33,11.5-3.88,24.57-6.71,31.71-16.53,9.91-13.61,3.18-32.86,6.94-49.27,3.71-16.21,19-29.02,35.61-29.84,16.61-.82,33.08,10.43,38.37,26.19,5.57,16.61-.13,36.8,10.21,50.95,10.85,14.84,31.76,13.96,50.29,18.15Z"/>
  <path class="cls-1" d="m589.39,169.31c-.7,2.84-1.4,5.67-2.09,8.51.7-2.84,1.4-5.67,2.09-8.51Z"/>
  <path class="cls-1" d="m1033.65,896.21c-.52-2.28-1.03-4.56-1.55-6.84.52,2.28,1.03,4.56,1.55,6.84Z"/>
  <path class="cls-1" d="m1488.63,954.18c.14-1.38.27-2.76.41-4.14-.14,1.38-.27,2.76-.41,4.14Z"/>
  <path class="cls-1" d="m1489.32,927.27c-.28-1.38-.57-2.75-.85-4.13.28,1.38.57,2.75.85,4.13Z"/>
  <path class="cls-1" d="m1031.58,885.86c-.22-1.38-.44-2.75-.66-4.13.22,1.38.44,2.75.66,4.13Z"/>
  <path class="cls-1" d="m699.68,84.94c-2.12.61-4.24,1.21-6.36,1.82,2.12-.61,4.24-1.21,6.36-1.82Z"/>
  <path class="cls-1" d="m782.41,589.82c.54-2.15,1.08-4.31,1.62-6.46-.54,2.15-1.08,4.31-1.62,6.46Z"/>
  <path class="cls-1" d="m685,442.79c-1.5-.44-3-.89-4.5-1.33,1.5.44,3,.89,4.5,1.33Z"/>
  <path class="cls-1" d="m498.79,764.3c-1.6.27-3.19.54-4.79.81,1.6-.27,3.19-.54,4.79-.81Z"/>
  <path class="cls-1" d="m811.27,527.53c.89-.32,1.77-.64,2.66-.96-.89.32-1.77.64-2.66.96Z"/>
  <path class="cls-1" d="m909.63,408.03c.04-.97.07-1.94.11-2.91-.04.97-.07,1.94-.11,2.91Z"/>
  <path class="cls-1" d="m635.18,426.33c-.73-.12-1.47-.25-2.2-.37.73.12,1.47.25,2.2.37Z"/>
  <path class="cls-1" d="m738.69,345.75c.88.34,1.76.68,2.64,1.03-.88-.34-1.76-.68-2.64-1.03Z"/>
  <path class="cls-1" d="m724.39,451.06c-.76-.09-1.53-.17-2.29-.26.76.09,1.53.17,2.29.26Z"/>
  <path class="cls-1" d="m715.65,338.08c.87.34,1.75.69,2.62,1.03-.87-.34-1.75-.69-2.62-1.03Z"/>
  <path class="cls-1" d="m796.72,531.59c.9-.29,1.8-.58,2.69-.87-.9.29-1.8.58-2.69.87Z"/>
  <path class="cls-1" d="m784.43,581.5c.12-.75.24-1.51.36-2.26.12.56.32,1.12.33,1.68,0,.18-.45.38-.7.57Z"/>
  <path class="cls-1" d="m773.91,269.09c-.66-.12-1.32-.23-1.99-.35.66.12,1.32.23,1.99.35Z"/>
  <path class="cls-1" d="m755.04,615.71c.91-.23,1.82-.46,2.72-.7-.91.23-1.82.46-2.72.7Z"/>
  <path class="cls-1" d="m741.11,260.38c-.88-.35-1.76-.71-2.63-1.06.88.35,1.76.71,2.63,1.06Z"/>
  <path class="cls-1" d="m939.83,774.11c-.78-.16-1.57-.32-2.35-.48.78.16,1.57.32,2.35.48Z"/>
  <path class="cls-1" d="m831.83,176.21c.89.04,1.78.07,2.68.11-.89-.04-1.78-.07-2.68-.11Z"/>
  <path class="cls-1" d="m485.88,848.32c.88-.12,1.76-.25,2.65-.37-.88.12-1.76.25-2.65.37Z"/>
  <path class="cls-1" d="m908.33,849.72c.87.27,1.74.55,2.62.82-.87-.27-1.74-.55-2.62-.82Z"/>
  <path class="cls-1" d="m713.78,167.1c.91-.3,1.81-.6,2.72-.9-.91.3-1.81.6-2.72.9Z"/>
  <path class="cls-1" d="m722.16,165.19c.86-.12,1.72-.24,2.58-.36-.86.12-1.72.24-2.58.36Z"/>
  <path class="cls-1" d="m842.48,94.99c-.77-.11-1.54-.22-2.31-.33.77.11,1.54.22,2.31.33Z"/>
  <path class="cls-1" d="m1372.5,891.11c.86.3,1.73.59,2.59.89-.86-.3-1.73-.59-2.59-.89Z"/>
  <path class="cls-1" d="m799.21,86.33c-.91-.26-1.82-.52-2.73-.77.91.26,1.82.52,2.73.77Z"/>
  <path class="cls-1" d="m1406.94,924.8c.34.88.69,1.75,1.03,2.63-.34-.88-.69-1.75-1.03-2.63Z"/>
  <path class="cls-1" d="m1490.38,937.94c0-.93-.01-1.85-.02-2.78,0,.93.01,1.85.02,2.78Z"/>
  <path class="cls-1" d="m784,29.02c-.24-.93-.47-1.85-.71-2.78.24.93.47,1.85.71,2.78Z"/>
  <path class="cls-1" d="m978.87,1301.13c.95-.12,1.9-.24,2.84-.35-.95.12-1.9.24-2.84.35Z"/>
</svg>