<?xml version="1.0" encoding="UTF-8"?>
<svg id="Calque_1" data-name="Calque 1" xmlns="http://www.w3.org/2000/svg" viewBox="0 0 1726.21 1141.25">
  <defs>
    <style>
      .cls-1 {
        fill: #1d1d1b;
      }
    </style>
  </defs>
  <path class="cls-1" d="m1302.87,816.93c27.76,63.8,35.29,135.85,28.13,205.31-3.32,32.2-11.55,67.22-37.7,86.3-16.44,12-37.36,15.63-57.51,18.43-208.52,28.94-420.49,3.73-630.89,10.9-46.23,1.57-92.92,4.68-138.42-3.63-45.5-8.32-90.65-29.66-117.15-67.57-44.85-64.17-24.74-147.79,2.03-214.59,26.26-65.54,59.7-134.62,122.32-172.55,39.91-24.17,87.67-32.65,134.33-32.67,80-.04,158.81,23.29,238.79,21.54,88.32-1.94,176.74-34.36,263.32-16.81,77.35,15.67,143.41,71.4,180.85,140.88,4.32,8.01,8.27,16.18,11.89,24.48Z"/>
  <path class="cls-1" d="m1083.58,363.45c-3.85,9.79-8.31,19.36-13.38,28.61-47.76,87.16-147.11,143.15-246.43,139.53-53.09-1.94-105.62-19.96-148.14-51.81-42.04-31.49-73.94-76.31-89.92-126.34-37.28-116.71,18.27-253.32,122.02-316.52,25.83-15.73,54.39-27.07,84.13-32.69,97.65-18.46,204.1,24.68,261.87,105.54,51.64,72.28,62.27,171.24,29.84,253.68Z"/>
  <path class="cls-1" d="m268.69,826.78c-1.55,3.59-3.07,7.2-4.55,10.83-6.95,17.04-14.1,35.69-29.79,45.31-13.42,8.23-30.17,7.97-45.9,7.46-26.87-.88-53.74-1.75-80.62-2.63-24.32-.79-50.48-2.23-69.58-17.31-13.9-10.97-21.97-27.73-27.51-44.55-14.43-43.81-14.47-92.37.77-135.9,15.24-43.53,45.82-81.67,85.48-105.23,57.08-33.9,127.17-36.04,193.48-32.76,26.89,1.33,53.95,3.43,79.93,10.5,25.98,7.07,51.05,19.41,69.73,38.81-27.44,19.87-52.76,48.14-75.1,73.52-14.27,16.21-27.62,33.23-39.98,50.94-22.11,31.67-41.05,65.55-56.37,101Z"/>
  <path class="cls-1" d="m1457.53,826.78c1.55,3.59,3.07,7.2,4.55,10.83,6.95,17.04,14.1,35.69,29.79,45.31,13.42,8.23,30.17,7.97,45.9,7.46,26.87-.88,53.74-1.75,80.62-2.63,24.32-.79,50.48-2.23,69.58-17.31,13.9-10.97,21.97-27.73,27.51-44.55,14.43-43.81,14.47-92.37-.77-135.9-15.24-43.53-45.82-81.67-85.48-105.23-57.08-33.9-127.17-36.04-193.48-32.76-26.89,1.33-53.95,3.43-79.93,10.5-25.98,7.07-51.05,19.41-69.73,38.81,27.44,19.87,52.76,48.14,75.1,73.52,14.27,16.21,27.62,33.23,39.98,50.94,22.11,31.67,41.05,65.55,56.37,101Z"/>
  <path class="cls-1" d="m151.54,183.34c11.92-10.24,25.36-18.8,39.83-25.25,18.32-8.16,38.21-12.87,58.29-13.23,65.09-1.15,128.48,43.21,149.69,104.77,21.21,61.55-1.4,135.55-53.38,174.74-51.99,39.19-129.34,40.56-182.68,3.23-45.02-31.51-69.97-88.41-65.27-142.85,3.44-39.79,23.77-75.84,53.53-101.41Z"/>
  <path class="cls-1" d="m1323.59,183.34c11.92-10.24,25.36-18.8,39.83-25.25,18.32-8.16,38.21-12.87,58.29-13.23,65.09-1.15,128.48,43.21,149.69,104.77,21.21,61.55-1.4,135.55-53.38,174.74-51.99,39.19-129.34,40.56-182.68,3.23-45.02-31.51-69.97-88.41-65.27-142.85,3.44-39.79,23.77-75.84,53.53-101.41Z"/>
</svg>