<?xml version="1.0" encoding="UTF-8"?>
<svg id="Calque_1" data-name="Calque 1" xmlns="http://www.w3.org/2000/svg" viewBox="0 0 1628.2 1143.9">
  <defs>
    <style>
      .cls-1 {
        fill: #1d1d1b;
      }
    </style>
  </defs>
  <path class="cls-1" d="m1311.9,564.28c-14.96,54.77-13.44,112.92-11.77,169.87-323.44.01-646.89.02-970.33.03,3.54-59.08,4.46-119.52-12.94-176.08-17.4-56.56-55.97-109.39-111.28-130.45-12.06-4.59-25.83-8.47-32.51-19.51-4.02-6.64-4.65-14.73-5-22.48-5.64-126.29,37.21-274.28,155.54-338.76C389.31,11.11,467.48,9.01,542.29,7.75c139.16-2.35,278.31-4.69,417.47-7.04,84.02-1.42,169.15-2.71,250.75,17.32,81.61,20.04,160.67,64.19,205.1,135.52,43.47,69.79,49.04,156.16,48.58,238.38-.05,8.42-.42,17.62-5.94,23.99-5.52,6.37-14.53,8.04-22.7,10.11-59.04,14.94-101.81,68.95-120.31,126.98-1.19,3.74-2.3,7.5-3.33,11.28Z"/>
  <path class="cls-1" d="m127.7,493.77c24.68,1.23,49.03,10.44,67.8,26.56,39.07,33.55,50.19,89.38,51.01,140.87s-6.13,103.98,6.64,153.87c377.55-.03,755.11-.06,1132.66-.09,2.62-46.52-2.78-93.18-1.13-139.75,1.64-46.57,11.21-94.81,39.81-131.6,28.6-36.79,79.92-58.73,123.5-42.22,31.89,12.07,54.29,42.13,65.31,74.4,11.02,32.27,12.25,66.94,13.09,101.02,3.34,135.96,2.06,272.02-3.84,407.89-.34,7.91-.82,16.22-5.02,22.93-4.79,7.66-13.49,11.8-21.84,15.26-40.04,16.58-84.43,26.64-126.8,17.55-42.37-9.09-81.78-40.73-90.27-83.23-361.37,1.39-722.73,2.78-1084.1,4.17-16.92.07-35.37.66-48.32,11.55-9.67,8.13-14.42,20.55-21.85,30.76-26.67,36.62-79.95,37.85-125.14,34.65-25.77-1.83-53.83-4.95-72.14-23.18-19.05-18.96-21.72-48.41-22.99-75.26-4.8-101.94-5.36-204.08-1.68-306.07,2.92-80.83-11.24-203.91,86.52-235.15,12.5-4,25.69-5.59,38.79-4.94Z"/>
  <path class="cls-1" d="m202.47,178.56c-2.28,4.98-4.57,9.96-6.85,14.94,2.28-4.98,4.57-9.96,6.85-14.94Z"/>
  <path class="cls-1" d="m172.99,265.33c-.87,4.94-1.74,9.89-2.61,14.83.87-4.94,1.74-9.89,2.61-14.83Z"/>
  <path class="cls-1" d="m1393.13,574.32c-1.3,4.17-2.6,8.35-3.9,12.52,1.3-4.17,2.6-8.35,3.9-12.52Z"/>
  <path class="cls-1" d="m1454.86,253.77c-.98-3.62-1.95-7.24-2.92-10.87.98,3.62,1.95,7.24,2.92,10.87Z"/>
  <path class="cls-1" d="m191.25,202.35c-1.43,3.73-2.85,7.46-4.28,11.18,1.43-3.73,2.85-7.46,4.28-11.18Z"/>
  <path class="cls-1" d="m10.7,576.17c-.69,2.42-1.37,4.84-2.06,7.25.69-2.42,1.37-4.84,2.06-7.25Z"/>
  <path class="cls-1" d="m1463.34,414.71c.48-1.52.97-3.04,1.45-4.57-.48,1.52-.97,3.04-1.45,4.57Z"/>
  <path class="cls-1" d="m205.92,172.06c-.86,1.69-1.71,3.37-2.57,5.06.86-1.69,1.71-3.37,2.57-5.06Z"/>
  <path class="cls-1" d="m1307.28,563.1c.66-1.76,1.32-3.51,1.98-5.27-.66,1.76-1.32,3.51-1.98,5.27Z"/>
  <path class="cls-1" d="m181.34,230.89c-.43,1.76-.86,3.52-1.29,5.28.43-1.76.86-3.52,1.29-5.28Z"/>
  <path class="cls-1" d="m170.07,282.26c-.16.74-.32,1.47-.48,2.21-.09-.56-.24-1.12-.23-1.68,0-.18.46-.35.71-.53Z"/>
  <path class="cls-1" d="m127.78,492.32c-.98.01-1.96.02-2.93.04.98-.01,1.96-.02,2.93-.04Z"/>
  <path class="cls-1" d="m178.3,241.75c-.25.76-.5,1.51-.75,2.27.25-.76.5-1.51.75-2.27Z"/>
  <path class="cls-1" d="m1509.74,492.86c-.91-.18-1.82-.37-2.73-.55.91.18,1.82.37,2.73.55Z"/>
  <path class="cls-1" d="m1312.52,546.4c.3-.87.6-1.75.9-2.62-.3.87-.6,1.75-.9,2.62Z"/>
  <path class="cls-1" d="m318.08,548.03c.27.43.6.83.79,1.29.07.18-.17.48-.27.73-.29-.43-.63-.83-.84-1.29-.07-.16.2-.48.32-.73Z"/>
  <path class="cls-1" d="m192.71,198.6c-.23.68-.45,1.35-.68,2.03.23-.68.45-1.35.68-2.03Z"/>
  <path class="cls-1" d="m424.2,12.28c-.87.2-1.75.4-2.62.6.87-.2,1.75-.4,2.62-.6Z"/>
  <path class="cls-1" d="m1152.08,5.26c-.92-.18-1.84-.37-2.76-.55.92.18,1.84.37,2.76.55Z"/>
  <path class="cls-1" d="m1626.43,1060.45c.09-.91.17-1.83.26-2.74-.09.91-.17,1.83-.26,2.74Z"/>
  <path class="cls-1" d="m243.9,1062.48c.52-.71,1.04-1.41,1.56-2.12-.52.71-1.04,1.41-1.56,2.12Z"/>
  <path class="cls-1" d="m481.35,4.89c-.92.16-1.83.33-2.75.49.92-.16,1.83-.33,2.75-.49Z"/>
  <path class="cls-1" d="m243.38,1068.3c.07-.8.14-1.61.21-2.41.15.57.36,1.14.4,1.72.01.22-.4.46-.61.69Z"/>
</svg>